<svg version="1.1" id="svg2" xmlns="http://www.w3.org/2000/svg" x="0" y="0" width="200" height="200" viewBox="0 0 200 200" xml:space="preserve"><style>.st1,.st5,.st8{fill-rule:evenodd;clip-rule:evenodd;fill:#185c94}.st5,.st8{fill:#7ca7c9}.st8{fill:#3875a9}</style><g id="layer1" transform="translate(70 -120)"><g id="g11870"><g id="use9295" transform="translate(49.5 18)"><path id="path8996" d="M-72 120.5c0 .5.4 1 1 1s1-.4 1-1-.4-1-1-1-1 .5-1 1z" fill-rule="evenodd" clip-rule="evenodd" fill="#4980ac"/></g><g id="use9349" transform="translate(22.5 49)"><path id="path9004" class="st1" d="M-72 120.5c0 .5.4 1 1 1s1-.4 1-1-.4-1-1-1-1 .5-1 1z"/></g><g id="use9419" transform="translate(103.5 68)"><path id="path9108" class="st1" d="M-72 120.5c0 .5.4 1 1 1s1-.4 1-1-.4-1-1-1-1 .5-1 1z"/></g><g id="use9435" transform="translate(60.5 42)"><path id="path9132" d="M-72 120.5c0 .5.4 1 1 1s1-.4 1-1-.4-1-1-1-1 .5-1 1z" fill-rule="evenodd" clip-rule="evenodd" fill="#3270a4"/></g><g id="use9951" transform="translate(56 11)"><path id="path9148" d="M-79.1 131.5c0 .3.3.6.6.6s.6-.3.6-.6-.3-.6-.6-.6-.6.3-.6.6z" fill-rule="evenodd" clip-rule="evenodd" fill="#73a0c1"/></g><g id="use10069" transform="translate(22.5 90)"><path id="path9244" d="M-72 120.5c0 .5.4 1 1 1s1-.4 1-1-.4-1-1-1-1 .5-1 1z" fill-rule="evenodd" clip-rule="evenodd" fill="#8aaed0"/></g><g id="use10089" transform="translate(43.5 33)"><path id="path9284" class="st5" d="M-72 120.5c0 .5.4 1 1 1s1-.4 1-1-.4-1-1-1-1 .5-1 1z"/></g><g id="use10099" transform="translate(5.5 75)"><path id="path9292" d="M-72 120.5c0 .5.4 1 1 1s1-.4 1-1-.4-1-1-1-1 .5-1 1z" fill-rule="evenodd" clip-rule="evenodd" fill="#6c99be"/></g><g id="use9086" transform="translate(45.5 95)"><path id="path9468" class="st1" d="M-72 120.5c0 .5.4 1 1 1s1-.4 1-1-.4-1-1-1-1 .5-1 1z"/></g><g id="use9090" transform="translate(70.5 82)"><path id="path9476" class="st8" d="M-72 120.5c0 .5.4 1 1 1s1-.4 1-1-.4-1-1-1-1 .5-1 1z"/></g><g id="use9112" transform="translate(46 16)"><path id="path9516" d="M-79.1 131.5c0 .3.3.6.6.6s.6-.3.6-.6-.3-.6-.6-.6-.6.3-.6.6z" fill-rule="evenodd" clip-rule="evenodd" fill="#5086b3"/></g><g id="use9691" transform="translate(120 26)"><path id="path9724" d="M-79.1 131.5c0 .3.3.6.6.6s.6-.3.6-.6-.3-.6-.6-.6-.6.3-.6.6z" fill-rule="evenodd" clip-rule="evenodd" fill="#6090bb"/></g><g id="use9287" transform="translate(116.5 81)"><path id="path9740" d="M-72 120.5c0 .5.4 1 1 1s1-.4 1-1-.4-1-1-1-1 .5-1 1z" fill-rule="evenodd" clip-rule="evenodd" fill="#22659a"/></g><g id="use9243" transform="translate(168.5 94)"><path id="path9756" d="M-72 120.5c0 .5.4 1 1 1s1-.4 1-1-.4-1-1-1-1 .5-1 1z" fill-rule="evenodd" clip-rule="evenodd" fill="#487fad"/></g><g id="use9297" transform="translate(166.5 27)"><path id="path9772" d="M-72 120.5c0 .5.4 1 1 1s1-.4 1-1-.4-1-1-1-1 .5-1 1z" fill-rule="evenodd" clip-rule="evenodd" fill="#93b6d3"/></g><g id="use9407" transform="translate(179.5 4)"><path id="path9820" d="M-72 120.5c0 .5.4 1 1 1s1-.4 1-1-.4-1-1-1-1 .5-1 1z" fill-rule="evenodd" clip-rule="evenodd" fill="#6693bb"/></g><g id="use9361" transform="translate(188.5 65)"><path id="path9828" d="M-72 120.5c0 .5.4 1 1 1s1-.4 1-1-.4-1-1-1-1 .5-1 1z" fill-rule="evenodd" clip-rule="evenodd" fill="#296a9d"/></g><g id="use9423" transform="translate(135.5 45)"><path id="path9884" class="st1" d="M-72 120.5c0 .5.4 1 1 1s1-.4 1-1-.4-1-1-1-1 .5-1 1z"/></g><g id="use10005" transform="translate(200 60)"><path id="path9988" d="M-79.1 131.5c0 .3.3.6.6.6s.6-.3.6-.6-.3-.6-.6-.6-.6.3-.6.6z" fill-rule="evenodd" clip-rule="evenodd" fill="#28689e"/></g><g id="use10067" transform="translate(119.5 20)"><path id="path10044" d="M-72 120.5c0 .5.4 1 1 1s1-.4 1-1-.4-1-1-1-1 .5-1 1z" fill-rule="evenodd" clip-rule="evenodd" fill="#3471a2"/></g><g id="use10075" transform="translate(183.5 64)"><path id="path10052" d="M-72 120.5c0 .5.4 1 1 1s1-.4 1-1-.4-1-1-1-1 .5-1 1z" fill-rule="evenodd" clip-rule="evenodd" fill="#568ab5"/></g><g id="use9126" transform="translate(127 16)"><path id="path10308" d="M-79.1 131.5c0 .3.3.6.6.6s.6-.3.6-.6-.3-.6-.6-.6-.6.3-.6.6z" fill-rule="evenodd" clip-rule="evenodd" fill="#6190b8"/></g><g id="use9142" transform="translate(177.5 38)"><path id="path10324" class="st5" d="M-72 120.5c0 .5.4 1 1 1s1-.4 1-1-.4-1-1-1-1 .5-1 1z"/></g><g id="use9146" transform="translate(108.5 8)"><path id="path10332" class="st1" d="M-72 120.5c0 .5.4 1 1 1s1-.4 1-1-.4-1-1-1-1 .5-1 1z"/></g><g id="use9525" transform="translate(41 170)"><path id="path10372" d="M-79.1 131.5c0 .3.3.6.6.6s.6-.3.6-.6-.3-.6-.6-.6-.6.3-.6.6z" fill-rule="evenodd" clip-rule="evenodd" fill="#3d7aab"/></g><g id="use9301" transform="translate(56.5 124.129)"><path id="path10588" d="M-40.5 136.8c0 .5.4 1 1 1s1-.4 1-1-.4-1-1-1-1 .5-1 1z" fill-rule="evenodd" clip-rule="evenodd" fill="#1b5f97"/></g><g id="use10109" transform="translate(46.5 130)"><path id="path10780" d="M-72 120.5c0 .5.4 1 1 1s1-.4 1-1-.4-1-1-1-1 .5-1 1z" fill-rule="evenodd" clip-rule="evenodd" fill="#5287b1"/></g><g id="use8986" transform="translate(20 134)"><path id="path10868" d="M-79.1 131.5c0 .3.3.6.6.6s.6-.3.6-.6-.3-.6-.6-.6-.6.3-.6.6z" fill-rule="evenodd" clip-rule="evenodd" fill="#6494ba"/></g><g id="use9050" transform="translate(38.5 172)"><path id="path10924" d="M-72 120.5c0 .5.4 1 1 1s1-.4 1-1-.4-1-1-1-1 .5-1 1z" fill-rule="evenodd" clip-rule="evenodd" fill="#6898c2"/></g><g id="use9078" transform="translate(91.5 111)"><path id="path10980" d="M-72 120.5c0 .5.4 1 1 1s1-.4 1-1-.4-1-1-1-1 .5-1 1z" fill-rule="evenodd" clip-rule="evenodd" fill="#83acc8"/></g><g id="use9124" transform="translate(15 124)"><path id="path11036" d="M-79.1 131.5c0 .3.3.6.6.6s.6-.3.6-.6-.3-.6-.6-.6-.6.3-.6.6z" fill-rule="evenodd" clip-rule="evenodd" fill="#3774a4"/></g><g id="use9158" transform="translate(88.5 118)"><path id="path11092" class="st1" d="M-72 120.5c0 .5.4 1 1 1s1-.4 1-1-.4-1-1-1-1 .5-1 1z"/></g><g id="use9166" transform="translate(3.5 140)"><path id="path11116" d="M-72 120.5c0 .5.4 1 1 1s1-.4 1-1-.4-1-1-1-1 .5-1 1z" fill-rule="evenodd" clip-rule="evenodd" fill="#6c99bd"/></g><g id="use9661" transform="translate(144 178)"><path id="path11300" d="M-79.1 131.5c0 .3.3.6.6.6s.6-.3.6-.6-.3-.6-.6-.6-.6.3-.6.6z" fill-rule="evenodd" clip-rule="evenodd" fill="#4b81b0"/></g><g id="use9347" transform="translate(113.5 175)"><path id="path11388" d="M-72 120.5c0 .5.4 1 1 1s1-.4 1-1-.4-1-1-1-1 .5-1 1z" fill-rule="evenodd" clip-rule="evenodd" fill="#8baecd"/></g><g id="use9257" transform="translate(136.5 155)"><path id="path11412" d="M-72 120.5c0 .5.4 1 1 1s1-.4 1-1-.4-1-1-1-1 .5-1 1z" fill-rule="evenodd" clip-rule="evenodd" fill="#206299"/></g><g id="use9323" transform="translate(167.5 164)"><path id="path11468" d="M-72 120.5c0 .5.4 1 1 1s1-.4 1-1-.4-1-1-1-1 .5-1 1z" fill-rule="evenodd" clip-rule="evenodd" fill="#5a90b9"/></g><g id="use9433" transform="translate(171.5 158)"><path id="path11492" class="st8" d="M-72 120.5c0 .5.4 1 1 1s1-.4 1-1-.4-1-1-1-1 .5-1 1z"/></g><g id="use10091" transform="translate(141.5 187)"><path id="path11628" d="M-72 120.5c0 .5.4 1 1 1s1-.4 1-1-.4-1-1-1-1 .5-1 1z" fill-rule="evenodd" clip-rule="evenodd" fill="#4f84b2"/></g><g id="use10111" transform="translate(142.5 125)"><path id="path11636" d="M-72 120.5c0 .5.4 1 1 1s1-.4 1-1-.4-1-1-1-1 .5-1 1z" fill-rule="evenodd" clip-rule="evenodd" fill="#84abc9"/></g><g id="use10119" transform="translate(171.5 190)"><path id="path11644" d="M-72 120.5c0 .5.4 1 1 1s1-.4 1-1-.4-1-1-1-1 .5-1 1z" fill-rule="evenodd" clip-rule="evenodd" fill="#578cb7"/></g><g id="use10135" transform="translate(126.5 111)"><path id="path11668" d="M-72 120.5c0 .5.4 1 1 1s1-.4 1-1-.4-1-1-1-1 .5-1 1z" fill-rule="evenodd" clip-rule="evenodd" fill="#195d95"/></g><g id="use9138" transform="translate(103.5 174)"><path id="path11836" d="M-72 120.5c0 .5.4 1 1 1s1-.4 1-1-.4-1-1-1-1 .5-1 1z" fill-rule="evenodd" clip-rule="evenodd" fill="#5389b4"/></g></g></g></svg>